<svg width="54" height="27" viewBox="0 0 54 27" fill="none" xmlns="http://www.w3.org/2000/svg">
<path d="M10.976 23.136V10.4L9.952 9.18399L7.904 10.304V23.136H5.504V10.4L4.448 9.18399L2.432 10.272V23.136H9.53674e-07V6.84799H1.824L2.272 8.47999L5.504 6.46399L7.424 8.70399L10.976 6.46399L13.408 9.21599V23.136H10.976ZM23.2445 26.304H20.3645L30.1885 -1.52588e-05H33.0685L23.2445 26.304ZM41.817 23.136L41.529 20.864H48.985L50.361 19.072V18.464L41.689 12.736V10.336L44.185 6.84799H52.633L52.921 9.11999H45.817L44.409 10.944V11.52L53.081 17.248V19.68L50.585 23.136H41.817Z" fill="white"/>
</svg>
