<svg width="312" height="35" viewBox="0 0 312 35" fill="none" xmlns="http://www.w3.org/2000/svg">
<path d="M0.432 33.732C4.932 28.872 7.74 23.94 9.648 18H14.94C13.86 21.924 12.528 25.452 10.584 28.728C9.576 30.456 8.46 32.112 7.092 33.732H0.432ZM21.492 33.552V28.764H27.036C29.448 28.764 31.536 28.512 33.804 27.72V33.012C31.536 33.444 29.412 33.552 27.036 33.552H21.492ZM18.792 33.552V18H24.048V33.552H18.792ZM1.044 7.91999C3.384 6.08399 5.364 3.45599 6.156 0.827992H11.232C10.512 3.85199 8.928 6.76799 6.732 9.03599C5.184 10.728 3.204 12.06 1.044 12.852V7.91999ZM-9.68575e-08 18.828V14.112H34.056V18.828H-9.68575e-08ZM14.292 15.66V-8.10623e-06H19.728V15.66H14.292ZM4.968 9.17999L6.12 4.46399H32.688V9.17999H4.968ZM49.968 13.572C52.668 11.34 53.64 9.03599 53.64 5.39999V0.179994H58.716V5.39999C58.716 7.77599 58.32 9.64799 57.456 11.232C57.024 12.096 56.448 12.888 55.728 13.572H49.968ZM43.2 12.168V9.46799C47.016 9.32399 50.76 8.99999 54.612 8.60399V11.052C52.848 11.268 51.084 11.52 49.392 11.664C47.34 11.88 45.288 12.06 43.2 12.168ZM43.92 7.99199V5.32799H54.756V7.99199H43.92ZM43.56 4.31999V1.65599H54.756V4.31999H43.56ZM61.74 13.572V0.179994H66.78V9.86399C66.78 11.052 66.78 12.348 66.78 13.572H61.74ZM63.72 11.736V9.03599H77.256V11.736H63.72ZM63.72 7.99199V5.32799H76.536V7.99199H63.72ZM63.72 4.31999V1.65599H76.896V4.31999H63.72ZM48.492 27.864V25.236H69.228C69.228 25.02 69.228 24.696 69.228 24.48V18.036H74.952V25.308C74.952 26.136 74.952 27 74.952 27.864H48.492ZM45.504 27.864V18.036H51.192V27.864H45.504ZM43.56 31.68V28.944H76.896V31.68H43.56ZM57.24 34.128V12.888H63.18V31.284C63.18 32.22 63.18 33.156 63.18 34.128H57.24ZM48.996 24.084V21.78H71.604V24.084H48.996ZM48.492 20.664V18.036H71.928V20.664H48.492ZM43.92 16.992V14.328H76.536V16.992H43.92ZM96.984 24.624V20.988H107.712C107.712 20.628 107.712 20.268 107.712 19.872V13.464H111.672V21.168C111.672 22.32 111.672 23.472 111.672 24.624H96.984ZM86.4 27.648C88.38 23.112 88.452 17.244 88.452 6.37199V0.935993H93.42V6.37199C93.42 14.616 93.204 21.456 91.584 26.676C90.504 29.916 88.884 32.472 86.4 34.38V27.648ZM93.528 33.048V28.908H109.116C109.008 28.368 108.9 28.044 108.756 27.54C108.54 26.784 108.36 26.028 108.108 25.308H112.176C112.608 26.712 113.04 28.152 113.436 29.556C113.724 30.744 114.012 31.86 114.264 33.048H93.528ZM95.112 24.624V13.464H99.072V24.624H95.112ZM101.376 29.592V9.71999L105.408 9.46799V29.592H101.376ZM96.984 17.136V13.464H109.8V17.136H96.984ZM94.86 7.81199C100.368 7.63199 106.272 7.41599 111.78 6.98399V10.836C108.252 11.088 104.508 11.268 100.872 11.412C98.82 11.484 96.804 11.52 94.86 11.556V7.81199ZM113.4 6.37199V0.935993H118.332V6.37199C118.332 17.496 118.404 23.22 120.456 27.756V34.38C117.9 32.472 116.28 29.88 115.2 26.676C113.58 21.42 113.4 14.616 113.4 6.37199ZM90.936 5.50799V0.935993H115.884V5.50799H90.936ZM162.54 31.032C153.144 23.328 143.388 16.416 132.66 10.296V4.39199C139.032 7.73999 145.62 11.808 151.884 16.2C155.628 18.756 159.192 21.456 162.54 24.192V31.032ZM159.372 1.47599C157.5 11.88 153.036 19.98 146.088 25.704C142.02 29.052 136.98 31.572 131.04 33.192V27.72C143.352 23.94 151.092 14.976 153.648 1.47599H159.372ZM203.76 14.58V19.728C201.06 19.728 198.36 19.728 195.66 19.728H172.98V14.58H203.76ZM237.744 23.112C231.768 20.376 225.648 17.676 219.744 15.192L222.696 11.16C225.612 12.312 228.564 13.5 231.516 14.688C233.964 15.696 236.376 16.704 238.86 17.748L237.744 23.112ZM244.512 2.41199C244.476 16.704 242.64 24.804 238.032 32.256C234.36 32.544 230.76 32.652 227.124 32.652C223.488 32.652 219.852 32.544 216.18 32.256V27.288C219.852 27.576 223.488 27.72 227.124 27.72C229.5 27.72 231.912 27.648 234.216 27.504C237.06 21.888 238.464 15.912 238.824 7.34399H226.728C225.756 9.39599 224.46 11.412 222.984 13.284C220.824 15.912 218.196 18.216 215.208 19.728V13.716C218.664 10.656 221.364 6.58799 223.02 2.41199H244.512ZM287.28 14.58V19.728C284.58 19.728 281.88 19.728 279.18 19.728H256.5V14.58H287.28ZM305.46 24.048V1.29599H311.508V13.86C311.508 17.244 311.472 20.664 311.472 24.048H305.46ZM305.46 33.012V26.028H311.472C311.472 28.368 311.472 30.672 311.472 33.012H305.46Z" fill="white"/>
</svg>
