<svg width="39" height="19" viewBox="0 0 39 19" fill="none" xmlns="http://www.w3.org/2000/svg">
<path d="M5.88 13.58V11.56H11.84C11.84 11.36 11.84 11.16 11.84 10.94V7.37999H14.04V11.66C14.04 12.3 14.04 12.94 14.04 13.58H5.88ZM-9.0152e-07 15.26C1.1 12.74 1.14 9.47999 1.14 3.43999V0.419988H3.9V3.43999C3.9 8.01999 3.78 11.82 2.88 14.72C2.28 16.52 1.38 17.94 -9.0152e-07 19V15.26ZM3.96 18.26V15.96H12.62C12.56 15.66 12.5 15.48 12.42 15.2C12.3 14.78 12.2 14.36 12.06 13.96H14.32C14.56 14.74 14.8 15.54 15.02 16.32C15.18 16.98 15.34 17.6 15.48 18.26H3.96ZM4.84 13.58V7.37999H7.04V13.58H4.84ZM8.32 16.34V5.29999L10.56 5.15999V16.34H8.32ZM5.88 9.41999V7.37999H13V9.41999H5.88ZM4.7 4.23999C7.76 4.13999 11.04 4.01999 14.1 3.77999V5.91999C12.14 6.05999 10.06 6.15999 8.04 6.23999C6.9 6.27999 5.78 6.29999 4.7 6.31999V4.23999ZM15 3.43999V0.419988H17.74V3.43999C17.74 9.61999 17.78 12.8 18.92 15.32V19C17.5 17.94 16.6 16.5 16 14.72C15.1 11.8 15 8.01999 15 3.43999ZM2.52 2.95999V0.419988H16.38V2.95999H2.52ZM27.54 9.97999V8.09999H35.64C35.64 7.83999 35.64 7.59999 35.64 7.37999V4.33999H37.9V8.19999C37.9 8.79999 37.9 9.39999 37.9 9.97999H27.54ZM25.86 12.64C27.58 11.76 29.08 10.74 30.16 9.49999H32.78C31.78 11.12 30.56 12.42 29.04 13.46C28.12 14.06 27.06 14.6 25.86 15.04V12.64ZM26.3 9.97999V4.33999H28.58V9.97999H26.3ZM31.42 9.49999H34.04C35.12 10.74 36.6 11.78 38.32 12.64V15.04C37.1 14.6 36.06 14.06 35.14 13.46C33.64 12.42 32.42 11.12 31.42 9.49999ZM30.82 15.48V-1.12057e-05H33.38V12.4C33.38 13.42 33.38 14.46 33.38 15.48H30.82ZM27.54 6.23999V4.33999H36.66V6.23999H27.54ZM25.34 3.37999V1.33999H38.88V3.37999H25.34ZM22.3 15.9V7.05999H24.92V14.06C25.56 15.54 26.86 16.04 29.78 16.04H34.04C36.22 16.04 37.5 15.9 38.8 15.7V18.46C37.22 18.46 35.64 18.46 34.04 18.46H28.88C25.8 18.46 24.4 17.64 23.48 15.9H22.3ZM19.9 18.74C20.8 17.22 21.64 15.66 22.38 14.12L24.9 14.28C24.52 15.16 24.08 16.06 23.66 16.96C23.36 17.56 23.04 18.14 22.72 18.74H19.9ZM19.96 9.61999V7.05999H23.62V9.61999H19.96ZM20.16 0.339988H22.84C23.28 1.07999 23.68 1.87999 24.1 2.69999C24.52 3.47999 24.9 4.29999 25.22 5.07999H22.26C21.66 3.53999 20.92 1.83999 20.16 0.339988Z" fill="white"/>
</svg>
